<svg xmlns="http://www.w3.org/2000/svg" viewBox="0 0 577.53 506.68">
  <g id="Layer_2" data-name="Layer 2">
    <g id="Layer_1-2" data-name="Layer 1">
      <g>
        <path d="M88.16,506.68c-2.72-.15-5.45-.29-8.18-.46a101.61,101.61,0,0,1-58-21.94A59.7,59.7,0,0,1,4.4,462.54C-.54,452-.92,441,1.29,429.68a76.87,76.87,0,0,1,12.41-29c7.47-10.87,17.19-19.39,28-26.75,3.16-2.16,6.43-4.17,9.7-6.17,2.55-1.56,5.26-1,6.71,1.18a5.39,5.39,0,0,1-1.45,7.17A142.83,142.83,0,0,0,36.91,392.2c-8.94,8.73-16.66,18.39-21.51,30-4.65,11.15-5.7,22.52-1,34a46.71,46.71,0,0,0,10,14.58c16.94,17.47,37.9,25.78,61.91,27.1a140.71,140.71,0,0,0,37.24-3c11.07-2.36,21.17-7.19,30.77-13.09a129.63,129.63,0,0,0,33.58-30,169.89,169.89,0,0,0,27.72-51.19c7.48-21.65,12.49-43.92,16.09-66.52a649.09,649.09,0,0,0,7.6-81.39c.27-8.25.28-16.51.4-24.77,0-.54,0-1.07,0-1.84-2.52.27-4.88.49-7.23.78-19.66,2.44-38.92,6.57-57.5,13.59a163.21,163.21,0,0,0-40.78,22.46,39.85,39.85,0,0,1-3.31,2.3,3.65,3.65,0,0,1-5.67-3.09,64.75,64.75,0,0,1,.36-7.75c.35-3.2,2.31-5.31,5.17-6.62,5.16-2.36,10.31-4.74,15.49-7a450.86,450.86,0,0,1,64-23.24A231.07,231.07,0,0,1,240.9,211c0-.49.09-1,.09-1.44,0-10.3,0-20.6.1-30.91a3.06,3.06,0,0,0-1.07-2.45c-7.33-7.09-14.79-14.05-21.91-21.35-16.38-16.81-31.8-34.43-44.84-54-6.4-9.62-12.41-19.52-16-30.58s-5.26-22.69-3.07-34.43c1.08-5.79,3.59-10.89,8.67-14.28,4.65-3.11,9.9-3.91,15.31-3.28,12.15,1.41,22.7,6.3,31.08,15.3C224,49.32,234,67.88,241.23,88a227.69,227.69,0,0,1,12.08,54c.89,8.7,1.07,17.47,1.64,26.2a2.94,2.94,0,0,0,.88,1.87Q277.1,188,298.46,205.74a3,3,0,0,0,1.72.67,493.34,493.34,0,0,1,66.32,6.64c14.13,2.33,28.19,5,42.09,8.5l.87.2c.49-2.62.9-5.21,1.46-7.77,2.95-13.39,5.7-26.83,8.95-40.14a500.54,500.54,0,0,1,23.39-71.55c7.59-18.45,16.39-36.28,27.6-52.83,8.38-12.38,17.78-23.89,29.74-33C509.83,9.36,519.79,3.57,531.28,1c11-2.49,20.85-.38,28.81,8.13,4.26,4.54,7.07,10,9.3,15.7,4.12,10.57,6.06,21.64,7.09,32.88a261.18,261.18,0,0,1-1.55,60,14.41,14.41,0,0,1-3.37,7.66c-1.85,2.15-3.62,4.37-5.4,6.58-.83,1-1.8,1.62-3.11,1.05a2.38,2.38,0,0,1-1.35-3c1.09-5.67,2-11.37,3.28-17,4.36-19.65,4.1-39.34.49-59-1.5-8.21-3.42-16.35-5.51-24.43a25.4,25.4,0,0,0-7-12c-5.51-5.29-12-6.83-19.29-4.58a67.13,67.13,0,0,0-20.51,10.46A145.08,145.08,0,0,0,492.87,42.4c-8,8.85-14.85,18.56-21.4,28.5-9.53,14.43-16.57,30.05-22.26,46.3-9.41,26.89-15.83,54.52-20.33,82.61-1.43,8.89-2.52,17.83-3.77,26.74-.13.86-.1,1.45.87,1.89a292.13,292.13,0,0,1,32.2,17.28c9.73,6,19,12.64,26.95,20.87a47.52,47.52,0,0,1,8.42,11.17c4.86,9.46,3.63,17.46-3.82,25.07-5.76,5.88-12.92,9-20.9,10.35-11,1.88-21.84.94-32.6-1.38-5.67-1.22-11.23-3-16.83-4.51-.32-.09-.65-.16-1.11-.27-.14,2.15-.29,4.17-.39,6.19a353.41,353.41,0,0,0,.27,42.06c2,28.45,7.62,56.05,19.37,82.19a171.88,171.88,0,0,0,29.32,45.48c5.1,5.62,11.1,10,18.75,11.56s14.63,0,21.52-3C522,485,532.37,473.84,540,459.79c7.79-14.34,12.68-29.68,16-45.56.56-2.63,1-5.28,1.49-7.92a7.16,7.16,0,0,1,3.32-4.92,21,21,0,0,1,3.64-2,2.94,2.94,0,0,1,2.44.11,3.13,3.13,0,0,1,1,2.41,24.14,24.14,0,0,1-1.08,4.17c-5,17.71-11,35-19.16,51.53-6.1,12.37-13.17,24.12-23.06,33.91-6.53,6.47-13.92,11.6-23,13.81-9.92,2.4-19.27.59-28.15-4.14C463.74,496,456,488.5,449.19,480a168.42,168.42,0,0,1-22.55-38.18c-4.73-10.79-7.67-22.16-10.27-33.61a437.2,437.2,0,0,1-8.83-56.86c-1.49-16.38-2.38-32.82-3.41-49.25a4.91,4.91,0,0,0-2.62-4.55c-11.79-7.23-23.61-14.43-35.16-22q-21.25-14-42.08-28.65C312.45,238.52,301,229.64,289.36,221a3.32,3.32,0,0,0-2.13-.68c-9.7,1-19.39,2.08-29.09,3.12-.84.09-1.32.19-1.3,1.28A475.7,475.7,0,0,1,251,307.43c-4.32,28.15-10.71,55.81-20.26,82.66-4,11.28-8.54,22.41-13.3,33.41a144.57,144.57,0,0,1-31.17,45.55c-13.89,13.73-30.26,23.48-48.66,30a136.48,136.48,0,0,1-43.2,7.51,11.7,11.7,0,0,0-1.17.15Zm149.4-356.43a7.4,7.4,0,0,0,.05-.83,287.49,287.49,0,0,0-3.84-36.93c-2.53-14.27-6.36-28.13-13-41.12-6.07-11.94-14-22.31-24.95-30.19a34.53,34.53,0,0,0-17.16-6.73c-10.22-.93-17.91,7.34-15.93,17A54.5,54.5,0,0,0,168.17,66c6,11.46,13.65,21.83,21.65,31.92,11.62,14.67,24.14,28.56,37.12,42C230.35,143.45,234,146.78,237.56,150.25Zm166.21,130c.12-1.05.23-1.78.27-2.51.85-12.55,1.64-25.11,2.56-37.65.12-1.68-.39-2.28-1.88-2.84-14.05-5.31-28.59-8.74-43.36-11.3A389.86,389.86,0,0,0,316.91,221c-2.23-.12-4.48,0-6.72,0C339.07,244.25,371.47,262,403.77,280.24Zm16.75-36.75c-.13,1.1-.21,1.63-.25,2.16q-1.41,20.23-2.84,40.46a1.64,1.64,0,0,0,1,1.74,63.67,63.67,0,0,0,43.91,8.93c4-.61,8-1.48,11.53-3.77s4.68-5.55,3.32-9.55a9.8,9.8,0,0,0-1.38-3,90.51,90.51,0,0,0-7.61-8.93c-8.48-8.11-18.36-14.27-28.82-19.47C433.31,249.07,427,246.44,420.52,243.49ZM275.87,207.06l.21-.38-21.56-20.29-.36.26c.18,7.45.35,14.91.53,22.51Z"/>
        <path d="M120.87,241.5c-13.79-.55-24.56-6.89-33.13-17.37a77,77,0,0,1-13.46-25.42,3,3,0,0,1,.47-3.2,2.75,2.75,0,0,1,3-.72c12.06,3.68,23.27,9,32.64,17.62,6.91,6.39,12,13.94,14.31,23.15q.24.94.42,1.89c.51,2.78-.56,4.05-3.37,4.06Z"/>
        <path d="M148.8,209.35c0,7.07-1.46,13.23-4.91,18.86-1.37,2.24-2.65,2.35-4.48.45-7.35-7.6-9.9-16.79-9-27.11a58.26,58.26,0,0,1,5.68-19.66c.45-1,.95-1.87,2.23-1.88s1.74.79,2.23,1.69c4.21,7.7,7.32,15.76,8.07,24.6C148.75,207.48,148.77,208.68,148.8,209.35Z"/>
        <path d="M80.67,245.79c8.19-.08,15.55,1.29,22.14,5.51a46.75,46.75,0,0,1,5.63,4.39c1.58,1.41,1.35,2.85-.45,4A31.68,31.68,0,0,1,83.67,264c-8.53-1.75-15.91-5.87-22.68-11.18a2.78,2.78,0,0,1-1-2.24,2.86,2.86,0,0,1,1.76-1.7A61.49,61.49,0,0,1,80.67,245.79Z"/>
      </g>
    </g>
  </g>
</svg>
